<?xml version="1.0" encoding="utf-8"?>
<!-- Generator: Adobe Illustrator 23.0.4, SVG Export Plug-In . SVG Version: 6.00 Build 0)  -->
<svg version="1.1" id="Layer_1" xmlns="http://www.w3.org/2000/svg" xmlns:xlink="http://www.w3.org/1999/xlink" x="0px" y="0px"
	 viewBox="0 0 88.83 44.54" style="enable-background:new 0 0 88.83 44.54;" xml:space="preserve">
<path style="fill-rule:evenodd;clip-rule:evenodd;fill:#B54142;" d="M34.5,15.28c0.91,1.69-0.18,3.37-1.16,4.53c-1.23,1.46-1.5,5.14-1.41,6.81c0.08,1.67,0.9,12.8,0.63,14.35
	c-0.27,1.55-0.75,1.9-1.84,2.01c-1.09,0.12-1.52,1.57,0.17,1.44s3.08-0.25,2.9-2.04s0.1-2.69,0.53-3.99
	c0.43-1.3,0.96-4.07,0.54-5.45c-0.42-1.39-0.51-2.48,0.43-2.38c0.94,0.1,1.09,2.42,0.97,4.32c-0.12,1.89,1.18,7.47,0.14,7.78
	c-1.05,0.31-2.33,0.97-1.18,1.6c1.16,0.63,3,0.17,2.75-1.41c-0.25-1.58,0.11-3.89,0.88-5.74c0.77-1.86-0.59-4.64,0.81-5.59
	s10.08-3.04,11.9-1.63c1.82,1.41,4.79,5.76,5.1,6.6c0.31,0.84-0.8,3.06-1.23,3.81c-0.44,0.75-1.6-0.33-2.24,0.23
	c-0.64,0.56,0.03,1.79,1.62,1.52c1.59-0.28,1.51-1.27,2.32-2.18s2.58-2.63,2.17-3.42c-0.41-0.79-2-4.18-2-4.18s2.48,2.73,3.44,3.76
	s1.34,3.71,1.2,4.46s-1.92,0.28-2.4,1.09c-0.48,0.8,0.33,1.59,1.81,1.21c1.49-0.37,2.07-1.19,1.94-2.88
	c-0.13-1.69,1.41-3.5,0.34-5.78c-1.08-2.28-1.65-4.6-1.4-7.14c0.18-1.76,0.63-3.58,0.09-5.43c0.01-0.06,0.02-0.13,0.02-0.19
	c0.52-5.93,9.28-7.61,8.15-15.35c-1.3-8.86-13.84-7.25-13.95,0.48c-0.12,8.14,12.46,5.6,9.23-0.27c-0.91-1.66-2.48-1.91-4.16-1.36
	l0,0c1.47,0.05,2.85,0.11,3.56,1.67c2,4.4-6.47,6.19-7.19,0.8c-0.84-6.24,9.74-8.23,10.6-1.06c0.7,5.84-5.78,7.2-7.96,12.52
	c-2.64-2.36-9.14-2.04-13.8-0.21c-4.85,1.9-6.89,0.4-7.53-1.34c-0.3-0.8,0.09-1.69,0.56-2.36c0.17-0.16,0.33-0.35,0.46-0.56
	c0.03-0.03,0.06-0.06,0.09-0.09s0.04-0.07,0.03-0.11c0.18-0.34,0.3-0.73,0.33-1.14c0.91-0.74,1.61-2.38,1.71-3.75
	c0.12-1.61-2.1-0.23-3.35,0.74c-0.49-0.34-1.1-0.66-1.86-0.92c-0.27-0.09-0.55-0.15-0.84-0.18c0.01-1.13-0.28-2.28-1.03-3.09
	c-0.89-0.96-1.4,2.22-1.68,3.78c-0.99,0.66-1.64,1.74-1.42,3.07C32.49,13.99,33.39,14.83,34.5,15.28z"/>
<path style="fill:#B54142;" d="M1,16.22h2.28v10.9H1V16.22z"/>
<path style="fill:#B54142;" d="M10.92,24.58l1.45,1.48c-0.72,0.75-2.11,1.25-3.29,1.25c-2.4,0-4.27-1.76-4.27-4.24c0-2.43,1.79-4.19,4.15-4.19
	c2.53,0,4.01,1.92,4.01,4.96H7.14c0.27,0.87,0.97,1.47,1.92,1.47C9.7,25.3,10.48,25,10.92,24.58z M7.17,22.19h3.6
	c-0.22-0.8-0.81-1.31-1.73-1.31C8.19,20.88,7.47,21.38,7.17,22.19z"/>
<path style="fill:#B54142;" d="M19.29,26.61c-0.47,0.42-1.2,0.7-1.86,0.7c-1.42,0-2.42-1.01-2.42-2.46V20.9h-1.11v-1.84h1.11v-2.21h2.18v2.21
	h1.75v1.84H17.2v3.59c0,0.53,0.34,0.9,0.76,0.9c0.31,0,0.62-0.11,0.78-0.26L19.29,26.61z"/>
<g style="enable-background:new;">
	<path style="fill:#B54142;" d="M21,20.62c0.48-0.44,0.81-0.97,0.95-1.47c-0.75,0-1.37-0.64-1.37-1.4c0-0.78,0.62-1.43,1.4-1.43
		c0.87,0,1.48,0.81,1.48,1.95c0,0.92-0.53,1.9-1.65,2.98L21,20.62z"/>
</g>
<g style="enable-background:new;">
	<path style="fill:#B54142;" d="M23.58,26.09l0.98-1.58c0.72,0.51,1.62,0.9,2.7,0.9c0.61,0,1.04-0.25,1.04-0.61c0-0.5-0.59-0.66-1.42-0.87
		c-1.65-0.41-2.93-0.86-2.95-2.45c-0.02-1.53,1.25-2.62,3.15-2.62c1.15,0,2.29,0.41,3.18,1l-0.92,1.62
		c-0.73-0.45-1.57-0.72-2.26-0.72c-0.56,0-0.95,0.2-0.95,0.48c0,0.44,0.33,0.56,1.42,0.86c1.39,0.36,2.93,0.83,2.93,2.59
		c0,1.59-1.29,2.6-3.27,2.6C25.92,27.31,24.55,26.87,23.58,26.09z"/>
</g>
<path style="fill:#B54142;" d="M3.7,33.1h1.75v1.84H3.7v6.22H1.51v-6.22H0.41V33.1h1.11v-0.7c0-1.45,1-2.46,2.42-2.46
	c0.66,0,1.39,0.28,1.86,0.7l-0.55,1.39c-0.16-0.16-0.47-0.26-0.78-0.26c-0.42,0-0.76,0.37-0.76,0.9V33.1z"/>
<path style="fill:#B54142;" d="M6.8,30.74c0-0.64,0.55-1.22,1.25-1.22c0.67,0,1.22,0.58,1.22,1.22c0,0.69-0.55,1.25-1.22,1.25
	C7.35,31.99,6.8,31.43,6.8,30.74z M6.89,33.1h2.28v8.06H6.89V33.1z"/>
<path style="fill:#B54142;" d="M18.81,36.03v5.13h-2.2v-4.65c0-1-0.62-1.68-1.53-1.68c-0.95,0-1.68,0.69-1.68,1.56l-0.02-0.05v4.82H11.1V33.1
	h2.28v1.01c0.48-0.73,1.39-1.2,2.43-1.2C17.56,32.91,18.81,34.21,18.81,36.03z"/>
<path style="fill:#B54142;" d="M29.02,30.26v10.9h-2.28v-1.15c-0.64,0.84-1.58,1.34-2.71,1.34c-2.15,0-3.71-1.75-3.71-4.23
	c0-2.46,1.56-4.21,3.71-4.21c1.14,0,2.07,0.5,2.71,1.34v-3.99H29.02z M26.75,37.12c0-1.34-0.86-2.29-2.06-2.29
	c-1.26,0-2.15,0.95-2.15,2.29c0,1.36,0.89,2.31,2.15,2.31C25.89,39.43,26.75,38.48,26.75,37.12z"/>
<path style="fill:#B54142;" d="M70.35,26.61c-0.47,0.42-1.2,0.7-1.86,0.7c-1.42,0-2.42-1.01-2.42-2.46V20.9h-1.11v-1.84h1.11v-2.21h2.18v2.21
	h1.75v1.84h-1.75v3.59c0,0.53,0.34,0.9,0.76,0.9c0.31,0,0.62-0.11,0.78-0.26L70.35,26.61z"/>
<path style="fill:#B54142;" d="M79.43,21.99v5.13h-2.2v-4.65c0-1-0.62-1.68-1.53-1.68c-0.95,0-1.68,0.69-1.68,1.56v4.77h-2.28v-10.9h2.28v3.82
	c0.5-0.7,1.39-1.17,2.42-1.17C78.18,18.87,79.43,20.17,79.43,21.99z"/>
<path style="fill:#B54142;" d="M87.01,24.58l1.45,1.48c-0.72,0.75-2.11,1.25-3.29,1.25c-2.4,0-4.27-1.76-4.27-4.24c0-2.43,1.79-4.19,4.15-4.19
	c2.53,0,4.01,1.92,4.01,4.96h-5.82c0.27,0.87,0.97,1.47,1.92,1.47C85.79,25.3,86.58,25,87.01,24.58z M83.27,22.19h3.6
	c-0.22-0.8-0.81-1.31-1.73-1.31C84.28,20.88,83.57,21.38,83.27,22.19z"/>
<path style="fill:#B54142;" d="M65.11,37.12c0-2.29,2.03-4.21,4.41-4.21c1.31,0,2.39,0.53,3.17,1.37l-1.51,1.29
	c-0.41-0.45-1.04-0.75-1.67-0.75c-1.18,0-2.18,1.04-2.18,2.28c0,1.26,1,2.32,2.2,2.32c0.62,0,1.28-0.31,1.7-0.78l1.51,1.28
	c-0.8,0.87-1.89,1.42-3.23,1.42C67.13,41.35,65.11,39.42,65.11,37.12z"/>
<path style="fill:#B54142;" d="M81.26,36.34v4.82h-2.2v-0.81c-0.58,0.65-1.5,1-2.37,1c-1.72,0-3.04-1.03-3.04-2.57c0-1.59,1.48-2.68,3.35-2.68
	c0.66,0,1.37,0.14,2.06,0.41v-0.16c0-0.86-0.53-1.61-1.86-1.61c-0.75,0-1.45,0.25-2.09,0.58l-0.76-1.51
	c1.14-0.58,2.25-0.89,3.37-0.89C79.82,32.91,81.26,34.24,81.26,36.34z M79.06,38.62v-0.75c-0.51-0.19-1.11-0.3-1.73-0.3
	c-0.83,0-1.48,0.48-1.48,1.14s0.58,1.06,1.36,1.06C78.08,39.77,78.9,39.37,79.06,38.62z"/>
<path style="fill:#B54142;" d="M87.96,40.65c-0.47,0.42-1.2,0.7-1.86,0.7c-1.42,0-2.42-1.01-2.42-2.46v-3.95h-1.11V33.1h1.11v-2.21h2.18v2.21
	h1.75v1.84h-1.75v3.59c0,0.53,0.34,0.9,0.76,0.9c0.31,0,0.62-0.11,0.78-0.26L87.96,40.65z"/>
</svg>
