<?xml version="1.0" encoding="utf-8"?>
<!-- Generator: Adobe Illustrator 23.0.4, SVG Export Plug-In . SVG Version: 6.00 Build 0)  -->
<svg version="1.1" id="cat" xmlns="http://www.w3.org/2000/svg" xmlns:xlink="http://www.w3.org/1999/xlink" x="0px" y="0px"
	 viewBox="0 0 343.4 241.9" style="enable-background:new 0 0 343.4 241.9;" xml:space="preserve">
<style type="text/css">
	.st0{fill:#B54142;}
	.st1{fill:#98D5CC;}
	.st2{fill:#C76061;}
	.st3{fill:#3C2A34;}
	.st4{fill:#DF9FA1;}
	.st5{fill:#F5EFDB;}
	.st6{fill:#FFFFFF;}
	.st7{fill:#D0C4B3;}
	.st8{fill:#FFFAEF;}
</style>
<g>
	<path class="st0" d="M292.3,55.2c0,30.5-24.7,55.2-55.2,55.2c-30.5,0-55.2-24.7-55.2-55.2C182,24.7,206.7,0,237.1,0
		S292.3,24.7,292.3,55.2z"/>
	<g>
		<path class="st1" d="M190.1,84.1c0.4,0.7,0.9,1.4,1.4,2.2c10-9.4,46.5-45.3,61.3-84c-0.8-0.2-1.6-0.5-2.4-0.7
			c-0.2,0.5-0.4,0.9-0.5,1.4c0.2-0.1,0.4-0.1,0.6-0.2l0.7,2.4c-0.9,0.2-1.7,0.5-2.5,0.7c-1.6,3.7-3.4,7.4-5.3,11
			c0.2-0.1,0.4-0.2,0.4-0.2l1.1,2.3c-0.2,0.1-1.2,0.6-3.3,1.3c-2.4,4.2-4.9,8.4-7.6,12.4c0.3-0.1,0.5-0.1,0.6-0.1l0.5,2.5
			c-0.1,0-1.1,0.2-3,0.5c-3.4,5-7,9.9-10.6,14.4c0.6,0.3,0.9,0.5,1,0.5l-1.1,2.2c-0.1-0.1-0.6-0.3-1.4-0.7c-2.5,3.1-5,6.1-7.4,8.9
			c0.3,0.2,0.6,0.3,0.9,0.5l-1.2,2.2c-0.5-0.2-1-0.5-1.4-0.8c-2.6,3-5.2,5.8-7.6,8.3c0.5,0.2,0.8,0.3,0.8,0.3l-0.9,2.4
			c-0.1,0-0.7-0.3-1.8-0.7C196.5,78,192.6,81.8,190.1,84.1z"/>
		<path class="st1" d="M224.2,72.9c13.5-14.6,31.1-37.2,41.4-65c-0.7-0.4-1.5-0.9-2.2-1.3c-16.3,44.5-52.1,76.6-65.4,87.4
			c0.6,0.6,1.2,1.2,1.9,1.8C205.3,91.3,214.4,83.5,224.2,72.9z"/>
		<path class="st1" d="M255.4,55c0,0,0,0.2,0,0.4c1-1.4,2-2.9,3-4.4c-0.7-0.6-1-1-1.1-1.1l1.9-1.7c0,0,0.2,0.2,0.7,0.7
			c1.1-1.7,2.2-3.5,3.3-5.3c-0.7-0.5-1.1-0.8-1.1-0.8l1.5-2c0,0,0.3,0.2,0.9,0.7c1.7-2.8,3.3-5.7,4.9-8.7c-0.7-0.7-1.1-1.1-1.2-1.2
			l1.8-1.7c0,0,0.2,0.2,0.6,0.6c2.2-4.3,4.3-8.9,6.3-13.6c-0.6-0.6-1.3-1.3-1.9-1.9c-12.1,29.6-30.1,51.7-43.7,65.5
			c-9.8,9.9-18.6,17-24.1,21c0.8,0.5,1.5,1,2.3,1.4c5.1-3.8,12.6-9.8,20.9-18c0-1,0-2,0-3.1h2.5c0,0.2,0,0.3,0,0.5
			c0,0,0.1-0.1,0.1-0.1c3.2-3.2,6.6-6.9,10.2-11.1c-0.1-1-0.1-2.1-0.2-3.1l2.5-0.2c0,0.2,0,0.3,0,0.5c2.5-3.1,5.1-6.3,7.7-9.9
			c-0.2-2-0.3-3.2-0.3-3.3L255.4,55z"/>
		<path class="st1" d="M222.3,50.5c0,0-0.4-0.2-1-0.5c-3.1-1.6-13.2-7.1-23.6-14.1c-1.5-0.2-3-0.5-4.5-0.8l0.4-2
			c-1.8-1.3-3.5-2.6-5.2-3.9c-0.4,0.8-0.8,1.5-1.2,2.3c12.6,9.8,27.8,18.1,32.4,20.6c0.8,0.4,1.3,0.7,1.4,0.7L222.3,50.5z"/>
		<path class="st1" d="M213.3,61.4c-0.3-0.2-0.6-0.3-0.9-0.5c-9.8-5.3-21-13.2-28.8-18.9c-0.2,0.9-0.4,1.8-0.6,2.7
			c7.6,5.6,18.3,13,27.7,18.2c0.5,0.3,1,0.5,1.4,0.8L213.3,61.4z"/>
		<path class="st1" d="M203.9,71.4c0,0-0.3-0.1-0.8-0.3c-2.4-1-10.1-4.6-21-12.7c0.1,1.1,0.2,2.3,0.3,3.4
			c9.1,6.6,15.8,9.9,18.9,11.2c1.1,0.5,1.7,0.7,1.8,0.7L203.9,71.4z"/>
		<path class="st1" d="M250.4,2.8c-0.2,0.1-0.4,0.1-0.6,0.2c-17.1,4.9-33.1,6.8-45,7.5c-1.2,0.9-2.3,1.8-3.4,2.7
			c11.9-0.5,28.8-2.1,47.2-7.2c0.8-0.2,1.7-0.5,2.5-0.7L250.4,2.8z"/>
		<path class="st1" d="M243.7,16.8c0,0-0.1,0.1-0.4,0.2c-2.4,1-16.8,6.3-50.4,5.2c-0.6,0.8-1.2,1.6-1.8,2.5
			c3.8,0.1,7.4,0.2,10.8,0.2c22,0,34.1-2.8,39.5-4.6c2.1-0.7,3.2-1.2,3.3-1.3L243.7,16.8z"/>
		<path class="st1" d="M197.8,35.8c5.4,0.8,10.7,1.1,15.6,1.1c8.1,0,14.9-0.8,18.6-1.4c1.9-0.3,3-0.5,3-0.5l-0.5-2.5
			c0,0-0.2,0-0.6,0.1c-3.4,0.6-21.8,3.7-40.1-0.1l-0.1,0.5l-0.4,2C194.8,35.3,196.3,35.6,197.8,35.8z"/>
		<path class="st1" d="M254.8,92.8c0,4.9-0.1,9.9-0.4,14.8c0.9-0.3,1.7-0.6,2.6-0.9c0.2-4.5,0.3-9,0.4-13.5c-0.8,0.6-1.4,1-1.5,1.1
			L254.8,92.8z"/>
		<path class="st1" d="M257,76c-0.3,0.2-0.5,0.4-0.5,0.4l-1.5-2c0,0,0.7-0.5,1.9-1.5c-0.5-9-1.1-15.6-1.3-17.3c0-0.3,0-0.4,0-0.4
			l-2.5,0.3c0,0.1,0.1,1.2,0.3,3.3c0.5,5.9,1.6,19,1.6,33.3c0.5-0.3,1.4-1,2.5-1.9C257.3,85.1,257.1,80.3,257,76z"/>
		<path class="st1" d="M243,68.1c0.1,1.1,0.1,2.1,0.2,3.1c1.1,17.4,0.8,30.8,0.4,38.7c0.9-0.1,1.7-0.2,2.6-0.4
			c0.4-8.5,0.7-22.7-0.6-41.2c0-0.2,0-0.3,0-0.5L243,68.1z"/>
		<path class="st1" d="M230.4,81.9c0,1,0,2.1,0,3.1c-0.1,10.3-0.5,19.2-0.9,24.9c0.8,0.1,1.7,0.2,2.5,0.3c0.4-6.1,0.9-16.2,0.9-27.7
			c0-0.2,0-0.3,0-0.5L230.4,81.9z"/>
		<path class="st1" d="M270,29.9l-1.8,1.7c0.1,0.1,0.5,0.5,1.2,1.2c2.8,2.6,10.2,9,22.5,15.3c-0.1-1-0.3-2.1-0.5-3.1
			c-11.8-6.3-18.8-12.6-20.8-14.6C270.2,30.1,270,29.9,270,29.9z"/>
		<path class="st1" d="M262.1,42.9c0,0,0.4,0.3,1.1,0.8c3.5,2.5,15.3,10.7,28.8,17.7c0.1-0.9,0.2-1.8,0.2-2.7
			c-13.2-6.9-24.5-14.8-27.7-17.1c-0.6-0.4-0.9-0.6-0.9-0.7L262.1,42.9z"/>
		<path class="st1" d="M259.2,48.3l-1.9,1.7c0.1,0.1,0.5,0.5,1.1,1.1c1.6,1.6,5.2,4.7,11,8.7c0.3-0.3,0.6-0.7,0.9-1.1l2,1.5
			c-0.2,0.3-0.5,0.6-0.7,0.9c2.6,1.7,5.6,3.5,9.1,5.4c0.2-0.4,0.5-0.8,0.7-1.1l2.2,1.3c-0.2,0.4-0.4,0.7-0.6,1.1
			c2.2,1.2,4.5,2.4,7,3.6c0.2-0.8,0.5-1.7,0.7-2.5c-18.7-9.1-28.2-17.6-30.7-20C259.5,48.5,259.3,48.3,259.2,48.3z"/>
		<path class="st1" d="M271.6,61.2c0.2-0.3,0.5-0.6,0.7-0.9l-2-1.5c-0.3,0.4-0.6,0.7-0.9,1.1c-5.1,6.4-10.1,10.9-12.7,13
			c-1.2,1-1.9,1.5-1.9,1.5l1.5,2c0,0,0.2-0.2,0.5-0.4C258.8,74.5,265,69.4,271.6,61.2z"/>
		<path class="st1" d="M282.9,67.9c0.2-0.4,0.4-0.7,0.6-1.1l-2.2-1.3c-0.2,0.4-0.4,0.7-0.7,1.1c-6,9.6-17.8,19.2-23.3,23.4
			c-1.2,0.9-2,1.5-2.5,1.9c-0.2,0.2-0.4,0.3-0.4,0.3l0.4,0.6l1,1.5c0.1-0.1,0.7-0.5,1.5-1.1C262,89.8,276,79,282.9,67.9z"/>
	</g>
</g>
<g>
	<path class="st2" d="M105,241c0,0-26.7,3.9-35.4-4.1c-6.9-6.4-14.8-13.3,42.9-14.9c57.7-1.5,69.5-12.6,53-15.5
		s-134.7,12.8-146.7-3.7c-8-11,129.5-6.7,158.6-5.2C206.6,199.1,224.6,231,105,241z"/>
	<ellipse class="st2" cx="193" cy="169.4" rx="150.4" ry="19"/>
	<path class="st3" d="M302.5,142c0,0,35.1,18.1,41,26.3c0,0-51.2,6-59.7,5.8C283.7,174.1,290.6,148.9,302.5,142z"/>
	<path class="st4" d="M305.9,150.4c0,0,19.2,9.3,28.5,19c0,0-43.7,6.4-51.2,4.7C283.2,174.1,304.1,155.6,305.9,150.4z"/>
	<path class="st5" d="M305.9,158.1c0,0,9.9,2.1,11.2,5.1c1.3,3.1-16.9,2.1-16.9,2.1s8,2.2,6.7,4.1c-1.3,1.9-11.5,0-11.5,0
		s8-0.3,8-0.8c0-0.6-6.2-4.4-6.2-4.4s14.3,0.4,14.2-0.9C311.4,161.9,305.9,158.1,305.9,158.1z"/>
	<path class="st3" d="M304,90.5c0,0,0.6-42.2-5-52.1c0,0-27.7,43.5-31.2,51.3C267.7,89.6,292.6,98.2,304,90.5z"/>
	<path class="st4" d="M297.7,83.3c0,0,1-25.2-3.3-37.7c0,0-20.3,29.9-22.5,36.4C271.9,82,292.9,82.2,297.7,83.3z"/>
	<path class="st5" d="M292,74c0,0,3.3-9.6,1.4-12.3C291.5,59,283,75.1,283,75.1s2.2-8.1-0.1-7.9c-2.3,0.2-5.9,9.9-5.9,9.9
		s4.4-6.8,4.9-6.5c0.5,0.3,0.6,7.6,0.6,7.6s7-12.5,8.1-11.7C291.6,67.4,292,74,292,74z"/>
	<path class="st3" d="M52.3,121.5c0,0-45,3.2-31.1,46.1s173.9-1.4,179.1,31.3c5.2,32.8-97.6,44.3-118,34.6s3.4-15.9,38.8-15.9
		s58.5-5.6,53.6-13.1c-2.9-4.5-28.4-2.5-28.4-2.5s-111.1,13.6-133.4-7.5c-24.5-23.2-15.8-87.7,40.8-92.6L52.3,121.5z"/>
	<path class="st5" d="M134.4,178.6c0,0,168.3,22.6,176.4-32.4c8.5-56.8-18.1-74-51.4-73.6s-79.3-1.2-101.6-34.2
		C130.3-2.5,55.4,28.8,45.6,76.5C22.8,188.6,134.4,178.6,134.4,178.6z"/>
	<path class="st3" d="M228.7,71.6c0,0,12.6,58.6,82.8,41.8C311.5,113.4,312.4,57.5,228.7,71.6z"/>
	<path class="st3" d="M312.4,124.6c0,0-61.4-14.3-68.1,56.7C244.3,181.3,324.1,181.4,312.4,124.6z"/>
	<path class="st6" d="M279.2,110.4c-8.1,0.2-14.9-6.3-15-14.5s6.3-14.9,14.5-15s14.9,6.3,15,14.5
		C293.8,103.5,287.4,110.2,279.2,110.4z"/>
	<path class="st3" d="M279.1,107.2c-6.4,0.1-11.7-5-11.8-11.4s5-11.7,11.4-11.8c6.4-0.1,11.7,5,11.8,11.4
		C290.6,101.8,285.5,107.1,279.1,107.2z"/>
	<path class="st6" d="M282.8,161.6c-8.1,0.1-14.9-6.3-15-14.5c-0.1-8.1,6.3-14.9,14.5-15c8.1-0.1,14.9,6.3,15,14.5
		C297.5,154.8,291,161.5,282.8,161.6z"/>
	<path class="st7" d="M152.8,176.1c0,0,55.2-41.6-40.7-83.2C112.1,92.9,216.5,126.5,152.8,176.1z"/>
	<path class="st3" d="M91.6,89.2c0,0,75.8,32.9,80.9,24.1C179.9,100.4,103.4,53.6,91.6,89.2z"/>
	<g>
		<path class="st8" d="M282.8,190.3c0,0-19.6-19.9-16.1-64.6C266.7,125.7,259.5,167.9,282.8,190.3z"/>
		<path class="st8" d="M272.6,197.6c0,0-18.2-27.6-7.2-71.5C265.4,126,252.4,172.3,272.6,197.6z"/>
		<path class="st8" d="M258,190.4c0,0-13.5-26,6.2-64.7C264.2,125.7,241.3,162.7,258,190.4z"/>
	</g>
	<g>
		<path class="st8" d="M274.1,45.6c0,0-20.3,19.1-18.7,64C255.5,109.6,249.9,67.1,274.1,45.6z"/>
		<path class="st8" d="M264.2,37.9c0,0-19.3,26.8-10,71.2C254.2,109.2,243,62.4,264.2,37.9z"/>
		<path class="st8" d="M249.3,44.5c0,0-14.6,25.4,3.6,64.9C252.9,109.5,231.5,71.6,249.3,44.5z"/>
	</g>
	<polygon class="st3" points="246.7,113.4 261.8,121.9 244.3,130.2 253,121.8 	"/>
	<polygon class="st2" points="274.5,118.9 264.8,121.8 273.7,126.5 	"/>
	<path class="st3" d="M222.6,182.9c0,0,16.9-21.2,0.1-47.6c-8.8-13.9-26.9-17.9-30.3-7.7s13.3,14.6,12.5,27.5
		c-0.7,10-14.8,27.7-14.8,27.7l15.5,0.5L222.6,182.9z"/>
	<path class="st3" d="M213.8,69.8c0,0,18.1,7.5,1.8,34.1c-8.6,14-26.7,18.3-30.2,8.1s13.1-14.8,12.1-27.7
		c-0.8-9.9-15.3-24.6-15.3-24.6L213.8,69.8z"/>
	<path class="st5" d="M289.3,104.3c0,1.3-1.1,2.4-2.4,2.4s-2.4-1.1-2.4-2.4c0-1.3,1.1-2.4,2.4-2.4
		C288.2,101.9,289.3,103,289.3,104.3z"/>
	<path class="st3" d="M282,158.4c-6.4,0.1-11.7-5-11.8-11.4c-0.1-6.4,5-11.7,11.4-11.8c6.4-0.1,11.7,5,11.8,11.4
		S288.4,158.3,282,158.4z"/>
	<path class="st5" d="M292.1,155.6c0,1.4-1.1,2.4-2.4,2.4c-1.3,0-2.4-1.1-2.4-2.4c0-1.3,1.1-2.4,2.4-2.4
		C291,153.2,292.1,154.3,292.1,155.6z"/>
	<path class="st3" d="M134.4,178.6c0,0-8.2-38.7-59.9-31.7c-21.5,2.9,13.6-70-30.7-59.6C43.8,87.2,18.5,181.3,134.4,178.6z"/>
	<path class="st4" d="M123.7,86.5c0,0,21.2,2.4,20.2,10.7C143,105.5,106.2,87,123.7,86.5z"/>
	<path class="st4" d="M154.6,93.2c0,0-3.9-2.1-5.7,0.5C147.2,96.4,162.1,99.5,154.6,93.2z"/>
	<path class="st4" d="M154,99.2c0,0-3.7-2.5-5.7,0C146.3,101.7,160.9,106.2,154,99.2z"/>
	<path class="st4" d="M150.5,105.4c0,0-2.9-3.3-5.5-1.5C142.4,105.7,155.4,113.9,150.5,105.4z"/>
	<path class="st4" d="M272.6,154"/>
	<path class="st5" d="M192.4,127.6c0,0,5.8,4.2,7.1,7.7C199.4,135.3,199,127.3,192.4,127.6z"/>
	<path class="st5" d="M194.6,124.4c0,0,5.8,4.2,7.1,7.7C201.7,132.1,201.2,124.2,194.6,124.4z"/>
	<path class="st5" d="M199.4,122.2c0,0,5.8,4.2,7.1,7.7C206.5,129.9,206.1,121.9,199.4,122.2z"/>
	<path class="st5" d="M192.4,101.5c0,0-3.9,6-7.3,7.4C185.1,108.9,193,108.1,192.4,101.5z"/>
	<path class="st5" d="M194.7,105.7c0,0-4.4,5.7-7.9,6.9C186.9,112.6,194.8,112.3,194.7,105.7z"/>
	<path class="st5" d="M163.4,105.5c0,0,6.7,2.7,8.8,5.7C172.2,111.2,169.8,103.6,163.4,105.5z"/>
	<path class="st5" d="M160.8,109.7c0,0,7.1,1.3,9.7,3.9C170.5,113.6,166.6,106.6,160.8,109.7z"/>
	<path class="st3" d="M87.9,31.6c0,0,82.3-7.1,82.6-17.3C170.9-0.6,81.3-5.3,87.9,31.6z"/>
	<path class="st4" d="M114.9,13.9c0,0,19.8-7.9,22.9-0.2C140.9,21.5,99.7,22.7,114.9,13.9z"/>
	<path class="st4" d="M145.3,5.1c0,0-4.4,0-4.8,3.2C140.2,11.5,154.9,7.1,145.3,5.1z"/>
	<path class="st4" d="M147.6,10.7c0,0-4.4-0.4-5,2.7C142,16.6,157,13.5,147.6,10.7z"/>
	<path class="st4" d="M147.4,17.8c0,0-4.1-1.6-5.6,1.3C140.5,22,155.8,23,147.4,17.8z"/>
	<path class="st5" d="M158.9,11.8c0,0,7.1-0.9,10.4,0.9C169.3,12.6,163.6,7.1,158.9,11.8z"/>
	<path class="st5" d="M158.6,16.7c0,0,6.8-2.2,10.4-1.2C168.9,15.5,162.2,11.2,158.6,16.7z"/>
	<path class="st5" d="M198.4,108.9c0,0-3.9,6-7.3,7.4C191,116.3,199,115.5,198.4,108.9z"/>
</g>
</svg>
